<?xml version="1.0" encoding="utf-8"?>
<svg version="1.1" xmlns="http://www.w3.org/2000/svg" xmlns:xlink="http://www.w3.org/1999/xlink" x="0px" y="0px"
	 viewBox="112 112 24 24" enable-background="new 112 112 24 24" xml:space="preserve">
<g id="R_x5C_7_Icon_white">
	<g>
		<path fill="#FFFFFF" d="M122.365,121.956c0-0.548-0.559-1.143-1.818-1.143h-1.165l1.037,1.842l0.245,0.431
			c0.116,0,0.233-0.012,0.338-0.023C121.945,122.934,122.365,122.421,122.365,121.956z"/>
		<path fill="#FFFFFF" d="M124,111.958c-6.65,0-12.042,5.392-12.042,12.042s5.392,12.042,12.042,12.042s12.042-5.392,12.042-12.042
			S130.65,111.958,124,111.958z M123.611,129.005h-1.561c-0.082,0-0.152-0.047-0.187-0.104l-0.023-0.035l-1.993-3.519l-0.245-0.444
			h-0.874v3.869c0,0.129-0.105,0.233-0.221,0.233h-1.364c-0.128,0-0.233-0.104-0.233-0.233v-5.687h1.666l-1.549-2.727v-0.012
			l-0.117-0.209v-0.921c0-0.116,0.104-0.222,0.233-0.222h3.402c0.825,0,1.563,0.177,2.159,0.518l1.047,3.901
			c-0.418,0.642-1.127,1.165-2.122,1.385l0.058,0.104l0.256,0.444l1.853,3.285l0.012,0.024c0.023,0.034,0.023,0.069,0.023,0.104
			C123.833,128.901,123.74,129.005,123.611,129.005z M131.09,120.761c0,0.035,0,0.07-0.023,0.104l-0.013,0.035l-4.591,7.971
			l-0.012,0.034c-0.038,0.047-0.089,0.085-0.144,0.099l-0.643-2.387l3.338-5.81h-4.463c-0.117,0-0.209-0.105-0.209-0.233
			c0-0.047,0-0.082,0.023-0.116l0.012-0.023l0.78-1.316l0.023-0.036c0.035-0.058,0.105-0.093,0.175-0.093h5.466
			c0.163,0,0.28,0.104,0.28,0.233V120.761L131.09,120.761z"/>
	</g>
	<g id="Shadow_6_">
		<g id="Shadow_R_3_">
			<path opacity="0.1" enable-background="new    " d="M120.664,123.085c0.116,0,0.233-0.012,0.338-0.023
				c0.944-0.128,1.363-0.641,1.363-1.106c0-0.548-0.559-1.143-1.818-1.143h-1.165l1.037,1.842L120.664,123.085z"/>
			<path id="Shadow_7_" opacity="0.1" enable-background="new    " d="M125.978,131.489l-0.015-0.015v-0.003
				c-0.043-0.052-0.086-0.136-0.114-0.242l-2.381-8.873l0.284,1.059c-0.417,0.642-1.127,1.165-2.121,1.385l0.058,0.104l0.256,0.444
				l1.853,3.285l0.012,0.022c0.023,0.036,0.023,0.071,0.023,0.105c0,0.141-0.093,0.245-0.221,0.245h-1.561
				c-0.082,0-0.152-0.047-0.187-0.104l-0.023-0.035l-1.993-3.519l-0.245-0.444h-0.874v3.869c0,0.129-0.105,0.233-0.221,0.233h-1.364
				c-0.065,0-0.124-0.026-0.166-0.07v0.001l7.105,7.105c1.872-0.013,3.641-0.454,5.218-1.229L125.978,131.489L125.978,131.489z"/>
		</g>
		<g id="Shadow_7_2_" opacity="0.1">
			<path d="M136.041,124.087l-5.02-5.02l-0.002,0.001c0.043,0.04,0.07,0.094,0.07,0.154v1.538c0,0.035,0,0.07-0.023,0.104
				l-0.013,0.035l-1.38,2.397l5.412,5.412C135.69,127.289,136.029,125.726,136.041,124.087z"/>
			<polygon points="129.003,120.808 127.183,120.808 128.339,121.964 			"/>
		</g>
		<path id="Shadow__x5C__1_" opacity="0.15" enable-background="new    " d="M129.674,123.298l-3.211,5.573l-0.012,0.034
			c-0.038,0.047-0.089,0.085-0.144,0.099l-0.643-2.387l2.674-4.653l-1.156-1.156h-2.643c-0.117,0-0.209-0.105-0.209-0.233
			c0-0.047,0-0.082,0.023-0.116l0.012-0.023l0.78-1.316l0.023-0.036c0.035-0.058,0.105-0.093,0.175-0.093h0.021l-2.484-2.483l0,0
			c0.014,0.013,0.028,0.03,0.041,0.052c0.002,0.002,0.003,0.004,0.005,0.007c0.005,0.009,0.012,0.019,0.017,0.029
			c0.003,0.006,0.007,0.013,0.01,0.019c0.005,0.01,0.01,0.02,0.015,0.03c0.008,0.017,0.016,0.034,0.023,0.052
			c0.002,0.008,0.006,0.016,0.009,0.023c0.006,0.016,0.011,0.03,0.017,0.046c0.002,0.008,0.005,0.016,0.007,0.022
			c0.008,0.023,0.015,0.048,0.022,0.072c-0.007-0.024-0.014-0.049-0.022-0.072c-0.002-0.007-0.005-0.015-0.007-0.022
			c-0.005-0.016-0.011-0.03-0.017-0.046c-0.003-0.008-0.006-0.016-0.009-0.023c-0.007-0.018-0.015-0.035-0.023-0.052
			c-0.005-0.011-0.01-0.021-0.015-0.03c-0.003-0.006-0.007-0.013-0.01-0.019c-0.005-0.01-0.012-0.021-0.017-0.029
			c-0.002-0.003-0.003-0.005-0.005-0.007c-0.013-0.021-0.027-0.039-0.041-0.052c-0.023-0.022-0.045-0.034-0.065-0.029l-0.737,0.197
			c-0.069,0.019-0.075,0.225-0.015,0.449l0.641,2.39c0,0,0,0,0,0l0.688,2.566l2.455,9.149c0.032,0.118,0.08,0.212,0.129,0.26l0,0
			l0,0c0.01,0.009,0.019,0.016,0.026,0.021c0.003,0.001,0.005,0.003,0.009,0.004c0.006,0.004,0.013,0.006,0.018,0.008
			c0.004,0.001,0.006,0.001,0.008,0.003c0.009,0.001,0.017,0.001,0.024-0.002c-0.008,0.003-0.016,0.003-0.024,0.002
			c-0.002-0.002-0.004-0.002-0.008-0.003c-0.005-0.002-0.012-0.004-0.018-0.008c-0.004-0.001-0.006-0.002-0.009-0.004
			c-0.008-0.006-0.017-0.013-0.026-0.021l0,0l3.325,3.325c2.586-1.271,4.65-3.44,5.783-6.104L129.674,123.298z"/>
	</g>
	<g id="_x5C__1_">
		<path fill="#575756" d="M126.832,130.964c0.052,0.19,0.02,0.348-0.069,0.371l-0.7,0.188c-0.069,0.02-0.163-0.104-0.214-0.294
			l-3.785-14.106c-0.061-0.224-0.055-0.43,0.015-0.448l0.737-0.197c0.07-0.019,0.171,0.157,0.231,0.382"/>
	</g>
</g>
</svg>
