<?xml version="1.0" encoding="utf-8"?>
<!-- Generator: Adobe Illustrator 16.0.4, SVG Export Plug-In . SVG Version: 6.00 Build 0)  -->
<!DOCTYPE svg PUBLIC "-//W3C//DTD SVG 1.1//EN" "http://www.w3.org/Graphics/SVG/1.1/DTD/svg11.dtd">
<svg version="1.1" id="Ebene_1" xmlns="http://www.w3.org/2000/svg" xmlns:xlink="http://www.w3.org/1999/xlink" x="0px" y="0px"
	 width="248px" height="248.001px" viewBox="0 0 248 248.001" enable-background="new 0 0 248 248.001" xml:space="preserve">
<g id="R_x5C_7_Icon_white">
	<g>
		<path fill="#FFFFFF" d="M107.16,102.942c0-5.64-5.76-11.76-18.721-11.76H76.441l10.68,18.96l2.52,4.439
			c1.199,0,2.4-0.12,3.479-0.24C102.84,113.022,107.16,107.742,107.16,102.942z"/>
		<path fill="#FFFFFF" d="M124,0C55.516,0,0,55.519,0,124.001s55.516,124,124,124c68.482,0,124-55.518,124-124S192.482,0,124,0z
			 M119.998,175.538H103.92c-0.84,0-1.561-0.48-1.92-1.08l-0.24-0.359l-20.52-36.237l-2.52-4.56h-9v39.836
			c0,1.32-1.08,2.4-2.279,2.4H53.402c-1.32,0-2.4-1.08-2.4-2.4v-58.556H68.16L52.201,86.503v-0.12l-1.199-2.159v-9.479
			c0-1.2,1.08-2.28,2.4-2.28h35.037c8.488,0,16.098,1.82,22.227,5.332l10.777,40.169c-4.299,6.61-11.604,11.997-21.844,14.257
			l0.6,1.08l2.641,4.56l19.078,33.837l0.121,0.24c0.24,0.359,0.24,0.721,0.24,1.08C122.279,174.458,121.318,175.538,119.998,175.538
			z M196.998,90.643c0,0.36,0,0.72-0.24,1.08l-0.119,0.36l-47.279,82.076l-0.119,0.359c-0.385,0.479-0.922,0.869-1.488,1.012
			l-6.598-24.581l34.365-59.826h-45.959c-1.199,0-2.16-1.08-2.16-2.4c0-0.479,0-0.84,0.24-1.2l0.119-0.239l8.041-13.56l0.24-0.36
			c0.359-0.6,1.08-0.96,1.799-0.96h56.277c1.682,0,2.881,1.08,2.881,2.4V90.643z"/>
	</g>
	<g id="Shadow_6_">
		<g id="Shadow_R_3_">
			<path opacity="0.1" d="M89.641,114.582c1.199,0,2.4-0.12,3.479-0.24c9.721-1.319,14.041-6.6,14.041-11.399
				c0-5.64-5.76-11.76-18.721-11.76H76.441l10.68,18.96L89.641,114.582z"/>
			<path id="Shadow_7_" opacity="0.1" d="M144.365,201.106l-0.145-0.145l-0.007-0.031c-0.449-0.529-0.883-1.396-1.177-2.494
				l-24.518-91.371l2.924,10.899c-4.299,6.61-11.604,11.997-21.844,14.257l0.6,1.08l2.641,4.56l19.078,33.837l0.121,0.24
				c0.24,0.359,0.24,0.721,0.24,1.08c0,1.439-0.961,2.52-2.281,2.52H103.92c-0.84,0-1.561-0.48-1.92-1.08l-0.24-0.359l-20.52-36.237
				l-2.52-4.56h-9v39.836c0,1.32-1.08,2.4-2.279,2.4H53.402c-0.666,0-1.271-0.275-1.707-0.719l-0.002,0.008l73.164,73.164
				c19.279-0.131,37.507-4.674,53.742-12.65l-34.229-34.229C144.369,201.11,144.367,201.108,144.365,201.106z"/>
		</g>
		<g id="Shadow_7_2_" opacity="0.1">
			<path d="M247.988,124.897l-51.689-51.689l-0.012,0.003c0.444,0.425,0.711,0.979,0.711,1.593v15.839c0,0.36,0,0.72-0.24,1.08
				l-0.119,0.36l-14.22,24.686l55.732,55.73C244.379,157.862,247.869,141.78,247.988,124.897z"/>
			<polygon points="175.52,91.123 156.773,91.123 168.68,103.03 			"/>
		</g>
		<path id="Shadow__x5C__1_" opacity="0.15" d="M182.419,116.768l-33.06,57.392l-0.119,0.359c-0.385,0.479-0.922,0.869-1.488,1.012
			l-6.598-24.581l27.526-47.92l-11.907-11.906h-27.213c-1.199,0-2.16-1.08-2.16-2.4c0-0.479,0-0.84,0.24-1.2l0.119-0.239
			l8.041-13.56l0.24-0.36c0.359-0.6,1.08-0.96,1.799-0.96h0.214l-25.581-25.58c0.001,0,0.001,0.001,0.001,0.002
			c0.14,0.136,0.281,0.316,0.423,0.533c0.016,0.023,0.032,0.046,0.048,0.07c0.061,0.097,0.121,0.2,0.183,0.31
			c0.034,0.061,0.067,0.125,0.101,0.188c0.053,0.102,0.105,0.2,0.156,0.311c0.081,0.17,0.159,0.35,0.236,0.538
			c0.031,0.078,0.062,0.161,0.093,0.242c0.059,0.153,0.116,0.311,0.171,0.473c0.027,0.077,0.053,0.153,0.078,0.231
			c0.078,0.241,0.153,0.488,0.222,0.744c-0.068-0.256-0.144-0.502-0.222-0.744c-0.025-0.078-0.051-0.155-0.078-0.231
			c-0.055-0.162-0.112-0.319-0.171-0.473c-0.03-0.081-0.062-0.164-0.093-0.242c-0.077-0.188-0.156-0.368-0.236-0.538
			c-0.051-0.109-0.104-0.209-0.156-0.311c-0.033-0.064-0.066-0.128-0.101-0.188c-0.061-0.108-0.122-0.214-0.183-0.31
			c-0.016-0.025-0.031-0.047-0.048-0.07c-0.142-0.215-0.284-0.397-0.423-0.533c-0.238-0.234-0.467-0.355-0.669-0.301l-7.594,2.038
			c-0.715,0.19-0.771,2.306-0.15,4.62l6.604,24.612c0,0.001,0,0.001,0.001,0.001l7.091,26.43l25.28,94.211
			c0.327,1.225,0.829,2.179,1.334,2.676l0,0l0,0c0.089,0.088,0.179,0.156,0.267,0.215c0.028,0.018,0.056,0.031,0.083,0.047
			c0.064,0.035,0.129,0.062,0.192,0.08c0.025,0.008,0.053,0.017,0.079,0.021c0.085,0.015,0.17,0.018,0.25-0.004
			c-0.081,0.021-0.165,0.019-0.25,0.004c-0.026-0.005-0.053-0.014-0.079-0.021c-0.063-0.018-0.127-0.045-0.192-0.08
			c-0.027-0.016-0.055-0.028-0.083-0.047c-0.088-0.059-0.177-0.127-0.267-0.215l0,0l34.238,34.238
			c26.628-13.084,47.881-35.434,59.544-62.85L182.419,116.768z"/>
	</g>
	<g id="_x5C__1_">
		<path fill="#575756" d="M153.17,195.718c0.525,1.957,0.193,3.57-0.717,3.814l-7.211,1.939c-0.715,0.189-1.682-1.08-2.205-3.035
			L104.061,53.183c-0.621-2.314-0.564-4.43,0.15-4.62l7.594-2.038c0.713-0.191,1.76,1.627,2.379,3.941"/>
	</g>
</g>
<g>
</g>
<g>
</g>
<g>
</g>
<g>
</g>
<g>
</g>
<g>
</g>
</svg>
