<?xml version="1.0" encoding="utf-8"?>
<!-- Generator: Adobe Illustrator 16.0.4, SVG Export Plug-In . SVG Version: 6.00 Build 0)  -->
<!DOCTYPE svg PUBLIC "-//W3C//DTD SVG 1.1//EN" "http://www.w3.org/Graphics/SVG/1.1/DTD/svg11.dtd">
<svg version="1.1" id="Ebene_1" xmlns="http://www.w3.org/2000/svg" xmlns:xlink="http://www.w3.org/1999/xlink" x="0px" y="0px"
	 width="45.35px" height="45.35px" viewBox="0 0 45.35 45.35" enable-background="new 0 0 45.35 45.35" xml:space="preserve">
<g id="R_x5C_7_Icon_2_">
	<g>
		<path fill="#2196F3" d="M19.615,18.848c0-1.024-1.048-2.137-3.403-2.137h-2.181l1.942,3.445l0.456,0.807
			c0.219,0,0.437-0.021,0.633-0.043C18.829,20.68,19.615,19.721,19.615,18.848z"/>
		<path fill="#2196F3" d="M22.675,0.14C10.229,0.14,0.14,10.229,0.14,22.675c0,12.446,10.089,22.535,22.535,22.535
			c12.444,0,22.535-10.089,22.535-22.535C45.21,10.229,35.119,0.14,22.675,0.14z M21.947,32.043h-2.922
			c-0.152,0-0.283-0.09-0.35-0.198l-0.043-0.066l-3.729-6.584l-0.459-0.83H12.81v7.241c0,0.239-0.195,0.438-0.414,0.438H9.845
			c-0.24,0-0.436-0.198-0.436-0.438V20.963h3.117l-2.9-5.102v-0.022l-0.217-0.393v-1.724c0-0.218,0.195-0.413,0.436-0.413h6.367
			c1.543,0,2.926,0.33,4.04,0.969l1.958,7.301c-0.781,1.2-2.108,2.18-3.971,2.589l0.11,0.196l0.479,0.83l3.467,6.147l0.021,0.044
			c0.045,0.066,0.045,0.133,0.045,0.196C22.362,31.845,22.188,32.043,21.947,32.043z M35.942,16.612c0,0.066,0,0.132-0.045,0.196
			l-0.021,0.065l-8.593,14.918l-0.021,0.064c-0.069,0.087-0.169,0.157-0.271,0.185l-1.199-4.468L32.039,16.7h-8.354
			c-0.218,0-0.393-0.196-0.393-0.437c0-0.087,0-0.152,0.043-0.218l0.022-0.044l1.461-2.464l0.044-0.065
			c0.066-0.109,0.195-0.174,0.325-0.174h10.228c0.307,0,0.526,0.196,0.526,0.436V16.612z"/>
	</g>
	<g id="Shadow_4_">
		<g id="Shadow_R_2_">
			<path opacity="0.1" d="M16.43,20.963c0.219,0,0.437-0.021,0.633-0.043c1.767-0.24,2.553-1.199,2.553-2.072
				c0-1.024-1.048-2.137-3.403-2.137h-2.181l1.942,3.445L16.43,20.963z"/>
			<path id="Shadow_5_" opacity="0.1" d="M26.376,36.689l-0.027-0.027v-0.006c-0.082-0.098-0.159-0.255-0.214-0.454l-4.456-16.604
				l0.531,1.981c-0.781,1.2-2.108,2.18-3.971,2.589l0.11,0.196l0.479,0.83l3.467,6.147l0.021,0.044
				c0.045,0.066,0.045,0.133,0.045,0.196c0,0.263-0.175,0.461-0.415,0.461h-2.922c-0.152,0-0.283-0.09-0.35-0.198l-0.043-0.066
				l-3.729-6.584l-0.459-0.83H12.81v7.241c0,0.239-0.195,0.438-0.414,0.438H9.845c-0.122,0-0.23-0.053-0.311-0.133l0,0
				l13.297,13.298c3.504-0.021,6.817-0.849,9.767-2.3l-6.22-6.219C26.376,36.689,26.376,36.689,26.376,36.689z"/>
		</g>
		<g id="Shadow_7_3_" opacity="0.1">
			<path d="M45.208,22.839l-9.394-9.395l-0.002,0.001c0.081,0.077,0.13,0.179,0.13,0.289v2.878c0,0.066,0,0.132-0.045,0.196
				l-0.021,0.065l-2.586,4.487l10.131,10.128C44.552,28.828,45.187,25.905,45.208,22.839z"/>
			<polygon points="32.039,16.7 28.63,16.7 30.793,18.864 			"/>
		</g>
		<path id="Shadow__x5C_" opacity="0.15" fill="#1D1D1B" d="M33.29,21.36l-6.007,10.432l-0.021,0.064
			c-0.069,0.087-0.169,0.157-0.271,0.185l-1.199-4.468l5.004-8.709L28.63,16.7h-4.944c-0.218,0-0.393-0.196-0.393-0.437
			c0-0.087,0-0.152,0.043-0.218l0.022-0.044l1.461-2.464l0.044-0.065c0.066-0.109,0.195-0.174,0.325-0.174h0.041L20.58,8.649l0,0
			c0.025,0.024,0.052,0.058,0.077,0.098c0.003,0.004,0.006,0.008,0.009,0.013c0.011,0.017,0.022,0.036,0.032,0.056
			c0.008,0.012,0.014,0.023,0.02,0.034c0.01,0.019,0.019,0.037,0.027,0.057c0.015,0.03,0.028,0.063,0.044,0.098
			c0.005,0.015,0.01,0.029,0.016,0.044c0.011,0.028,0.021,0.056,0.031,0.086c0.005,0.015,0.01,0.028,0.015,0.042
			c0.015,0.044,0.027,0.089,0.04,0.136c-0.013-0.047-0.025-0.092-0.04-0.136c-0.005-0.014-0.01-0.027-0.015-0.042
			c-0.01-0.03-0.021-0.058-0.031-0.086c-0.005-0.015-0.011-0.029-0.016-0.044c-0.016-0.034-0.029-0.067-0.044-0.098
			c-0.009-0.02-0.018-0.038-0.027-0.057c-0.006-0.012-0.012-0.022-0.02-0.034c-0.01-0.02-0.021-0.039-0.032-0.056
			c-0.003-0.006-0.006-0.009-0.009-0.013c-0.025-0.04-0.052-0.073-0.077-0.098c-0.043-0.043-0.085-0.064-0.121-0.055l-1.38,0.37
			C18.948,9,18.938,9.384,19.051,9.805l1.201,4.474l0,0l1.288,4.804l4.595,17.12c0.061,0.221,0.151,0.396,0.243,0.487l0,0l0,0
			c0.015,0.016,0.032,0.027,0.046,0.038c0.006,0.002,0.012,0.006,0.016,0.008c0.014,0.008,0.023,0.012,0.035,0.016
			c0.006,0.002,0.012,0.004,0.016,0.004c0.016,0.004,0.031,0.004,0.047,0c-0.016,0.004-0.031,0.004-0.047,0
			c-0.004,0-0.01-0.002-0.016-0.004c-0.012-0.004-0.021-0.008-0.035-0.016c-0.004-0.002-0.01-0.004-0.016-0.008
			c-0.014-0.011-0.031-0.022-0.046-0.038l0,0L32.6,42.91c4.839-2.378,8.701-6.438,10.821-11.421L33.29,21.36z"/>
	</g>
	<g id="_x5C_">
		<path fill="#575756" d="M27.977,35.709c0.094,0.354,0.035,0.648-0.13,0.692l-1.31,0.354c-0.131,0.035-0.308-0.198-0.402-0.553
			L19.051,9.805C18.938,9.384,18.948,9,19.079,8.965l1.38-0.37c0.129-0.034,0.319,0.297,0.432,0.717"/>
	</g>
</g>
<g>
</g>
<g>
</g>
<g>
</g>
<g>
</g>
<g>
</g>
<g>
</g>
</svg>
